<svg width="171" height="22" viewBox="0 0 171 22" fill="none" xmlns="http://www.w3.org/2000/svg">
<circle cx="10" cy="10" r="10" fill="#1DBE5D"/>
<path d="M35.7713 17H32.4759L37.4972 2.45455H41.4602L46.4744 17H43.179L39.5355 5.77841H39.4219L35.7713 17ZM35.5653 11.2827H43.3494V13.6832H35.5653V11.2827ZM52.5753 21.3182C51.5952 21.3182 50.7547 21.1832 50.054 20.9134C49.358 20.6482 48.804 20.286 48.392 19.8267C47.9801 19.3674 47.7126 18.8513 47.5895 18.2784L50.3878 17.902C50.473 18.1198 50.608 18.3234 50.7926 18.5128C50.9773 18.7022 51.2211 18.8537 51.5241 18.9673C51.8319 19.0857 52.206 19.1449 52.6463 19.1449C53.3045 19.1449 53.8466 18.9839 54.2727 18.6619C54.7036 18.3447 54.919 17.812 54.919 17.0639V15.0682H54.7912C54.6586 15.3712 54.4598 15.6577 54.1946 15.9276C53.9295 16.1974 53.5885 16.4176 53.1719 16.5881C52.7552 16.7585 52.258 16.8438 51.6804 16.8438C50.8613 16.8438 50.1155 16.6544 49.4432 16.2756C48.7756 15.892 48.2429 15.3073 47.8452 14.5213C47.4522 13.7306 47.2557 12.7315 47.2557 11.5241C47.2557 10.2884 47.4569 9.25616 47.8594 8.42756C48.2618 7.59896 48.7969 6.97869 49.4645 6.56676C50.1368 6.15483 50.8731 5.94886 51.6733 5.94886C52.2841 5.94886 52.7955 6.05303 53.2074 6.26136C53.6193 6.46496 53.9508 6.72064 54.2017 7.02841C54.4574 7.33144 54.6539 7.62973 54.7912 7.9233H54.9048V6.09091H57.9091V17.1065C57.9091 18.0346 57.6818 18.8111 57.2273 19.4361C56.7727 20.0611 56.143 20.5298 55.3381 20.8423C54.5379 21.1596 53.617 21.3182 52.5753 21.3182ZM52.6392 14.571C53.1269 14.571 53.5388 14.4503 53.875 14.2088C54.2159 13.9626 54.4763 13.6122 54.6562 13.1577C54.8409 12.6984 54.9332 12.1491 54.9332 11.5099C54.9332 10.8707 54.8433 10.3168 54.6634 9.84801C54.4834 9.37453 54.223 9.00758 53.8821 8.74716C53.5412 8.48674 53.1269 8.35653 52.6392 8.35653C52.142 8.35653 51.723 8.49148 51.3821 8.76136C51.0412 9.02651 50.7831 9.39583 50.608 9.86932C50.4328 10.3428 50.3452 10.8897 50.3452 11.5099C50.3452 12.1397 50.4328 12.6842 50.608 13.1435C50.7879 13.598 51.0459 13.9508 51.3821 14.2017C51.723 14.4479 52.142 14.571 52.6392 14.571ZM60.3168 17V6.09091H63.25V7.99432H63.3636C63.5625 7.31723 63.8963 6.80587 64.3651 6.46023C64.8338 6.10985 65.3736 5.93466 65.9844 5.93466C66.1359 5.93466 66.2992 5.94413 66.4744 5.96307C66.6496 5.98201 66.8035 6.00805 66.9361 6.04119V8.72585C66.794 8.68324 66.5975 8.64536 66.3466 8.61222C66.0956 8.57907 65.866 8.5625 65.6577 8.5625C65.2126 8.5625 64.8149 8.65956 64.4645 8.85369C64.1188 9.04309 63.8442 9.30824 63.6406 9.64915C63.4418 9.99006 63.3423 10.383 63.3423 10.8281V17H60.3168ZM71.2987 17.206C70.6026 17.206 69.9824 17.0852 69.4379 16.8438C68.8933 16.5975 68.4625 16.2353 68.1452 15.7571C67.8327 15.2741 67.6765 14.6728 67.6765 13.9531C67.6765 13.3471 67.7878 12.8381 68.0103 12.4261C68.2328 12.0142 68.5359 11.6828 68.9194 11.4318C69.3029 11.1809 69.7385 10.9915 70.2262 10.8636C70.7186 10.7358 71.2347 10.6458 71.7745 10.5938C72.409 10.5275 72.9203 10.4659 73.3086 10.4091C73.6969 10.3475 73.9786 10.2576 74.1538 10.1392C74.329 10.0208 74.4165 9.84564 74.4165 9.61364V9.57102C74.4165 9.12121 74.2745 8.7732 73.9904 8.52699C73.7111 8.28078 73.3133 8.15767 72.7972 8.15767C72.2527 8.15767 71.8195 8.27841 71.4975 8.51989C71.1755 8.75663 70.9625 9.05492 70.8583 9.41477L68.06 9.1875C68.2021 8.52462 68.4814 7.9517 68.8981 7.46875C69.3147 6.98106 69.8522 6.60701 70.5103 6.34659C71.1732 6.08144 71.9402 5.94886 72.8114 5.94886C73.4175 5.94886 73.9975 6.01989 74.5515 6.16193C75.1102 6.30398 75.605 6.52415 76.0359 6.82244C76.4715 7.12074 76.8147 7.50426 77.0657 7.97301C77.3166 8.43703 77.4421 8.99337 77.4421 9.64205V17H74.5728V15.4872H74.4876C74.3124 15.8281 74.078 16.1288 73.7844 16.3892C73.4909 16.6449 73.1381 16.8461 72.7262 16.9929C72.3143 17.1349 71.8384 17.206 71.2987 17.206ZM72.1651 15.1179C72.6102 15.1179 73.0032 15.0303 73.3441 14.8551C73.685 14.6752 73.9525 14.4337 74.1467 14.1307C74.3408 13.8277 74.4379 13.4844 74.4379 13.1009V11.9432C74.3432 12.0047 74.213 12.0616 74.0472 12.1136C73.8862 12.161 73.704 12.206 73.5004 12.2486C73.2968 12.2865 73.0932 12.322 72.8896 12.3551C72.686 12.3835 72.5013 12.4096 72.3356 12.4332C71.9805 12.4853 71.6703 12.5682 71.4052 12.6818C71.14 12.7955 70.9341 12.9493 70.7873 13.1435C70.6405 13.3329 70.5671 13.5696 70.5671 13.8537C70.5671 14.2656 70.7163 14.5805 71.0146 14.7983C71.3176 15.0114 71.7011 15.1179 72.1651 15.1179ZM84.4751 17V2.45455H87.5504V8.45597H93.7933V2.45455H96.8615V17H93.7933V10.9915H87.5504V17H84.4751ZM104.269 17.2131C103.166 17.2131 102.212 16.9787 101.407 16.5099C100.607 16.0365 99.9889 15.3783 99.5533 14.5355C99.1177 13.688 98.8999 12.7055 98.8999 11.5881C98.8999 10.4612 99.1177 9.47633 99.5533 8.63352C99.9889 7.78598 100.607 7.12784 101.407 6.65909C102.212 6.18561 103.166 5.94886 104.269 5.94886C105.372 5.94886 106.324 6.18561 107.124 6.65909C107.929 7.12784 108.549 7.78598 108.985 8.63352C109.421 9.47633 109.638 10.4612 109.638 11.5881C109.638 12.7055 109.421 13.688 108.985 14.5355C108.549 15.3783 107.929 16.0365 107.124 16.5099C106.324 16.9787 105.372 17.2131 104.269 17.2131ZM104.283 14.8693C104.785 14.8693 105.204 14.7273 105.54 14.4432C105.877 14.1544 106.13 13.7614 106.3 13.2642C106.476 12.767 106.563 12.2012 106.563 11.5668C106.563 10.9323 106.476 10.3665 106.3 9.86932C106.13 9.37216 105.877 8.97917 105.54 8.69034C105.204 8.40151 104.785 8.2571 104.283 8.2571C103.777 8.2571 103.351 8.40151 103.005 8.69034C102.664 8.97917 102.406 9.37216 102.231 9.86932C102.06 10.3665 101.975 10.9323 101.975 11.5668C101.975 12.2012 102.06 12.767 102.231 13.2642C102.406 13.7614 102.664 14.1544 103.005 14.4432C103.351 14.7273 103.777 14.8693 104.283 14.8693ZM114.631 2.45455V17H111.606V2.45455H114.631ZM121.075 17.1776C120.246 17.1776 119.496 16.9645 118.824 16.5384C118.156 16.1075 117.626 15.4754 117.233 14.642C116.844 13.804 116.65 12.7765 116.65 11.5597C116.65 10.3097 116.851 9.27036 117.254 8.44176C117.656 7.60843 118.191 6.9858 118.859 6.57386C119.531 6.1572 120.268 5.94886 121.068 5.94886C121.679 5.94886 122.188 6.05303 122.595 6.26136C123.007 6.46496 123.338 6.72064 123.589 7.02841C123.845 7.33144 124.039 7.62973 124.172 7.9233H124.264V2.45455H127.282V17H124.299V15.2528H124.172C124.029 15.5559 123.828 15.8565 123.568 16.1548C123.312 16.4484 122.978 16.6922 122.566 16.8864C122.159 17.0805 121.662 17.1776 121.075 17.1776ZM122.034 14.7699C122.521 14.7699 122.933 14.6373 123.27 14.3722C123.61 14.1023 123.871 13.7259 124.051 13.2429C124.235 12.7599 124.328 12.1941 124.328 11.5455C124.328 10.8968 124.238 10.3333 124.058 9.85511C123.878 9.37689 123.618 9.00758 123.277 8.74716C122.936 8.48674 122.521 8.35653 122.034 8.35653C121.537 8.35653 121.118 8.49148 120.777 8.76136C120.436 9.03125 120.178 9.4053 120.002 9.88352C119.827 10.3617 119.74 10.9157 119.74 11.5455C119.74 12.1799 119.827 12.741 120.002 13.2287C120.182 13.7116 120.44 14.0904 120.777 14.3651C121.118 14.6349 121.537 14.7699 122.034 14.7699ZM129.77 17V6.09091H132.795V17H129.77ZM131.29 4.68466C130.84 4.68466 130.454 4.53551 130.132 4.23722C129.815 3.93419 129.656 3.57197 129.656 3.15057C129.656 2.7339 129.815 2.37642 130.132 2.07812C130.454 1.77509 130.84 1.62358 131.29 1.62358C131.74 1.62358 132.123 1.77509 132.44 2.07812C132.762 2.37642 132.923 2.7339 132.923 3.15057C132.923 3.57197 132.762 3.93419 132.44 4.23722C132.123 4.53551 131.74 4.68466 131.29 4.68466ZM138.245 10.6932V17H135.219V6.09091H138.103V8.01562H138.23C138.472 7.38116 138.877 6.87926 139.445 6.50994C140.013 6.13589 140.702 5.94886 141.512 5.94886C142.269 5.94886 142.93 6.11458 143.493 6.44602C144.057 6.77746 144.495 7.25095 144.807 7.86648C145.12 8.47727 145.276 9.20644 145.276 10.054V17H142.25V10.5938C142.255 9.92614 142.085 9.4053 141.739 9.03125C141.393 8.65246 140.917 8.46307 140.311 8.46307C139.904 8.46307 139.544 8.55066 139.232 8.72585C138.924 8.90104 138.683 9.15672 138.507 9.4929C138.337 9.82434 138.249 10.2244 138.245 10.6932ZM152.575 21.3182C151.595 21.3182 150.755 21.1832 150.054 20.9134C149.358 20.6482 148.804 20.286 148.392 19.8267C147.98 19.3674 147.713 18.8513 147.589 18.2784L150.388 17.902C150.473 18.1198 150.608 18.3234 150.793 18.5128C150.977 18.7022 151.221 18.8537 151.524 18.9673C151.832 19.0857 152.206 19.1449 152.646 19.1449C153.304 19.1449 153.847 18.9839 154.273 18.6619C154.704 18.3447 154.919 17.812 154.919 17.0639V15.0682H154.791C154.659 15.3712 154.46 15.6577 154.195 15.9276C153.929 16.1974 153.589 16.4176 153.172 16.5881C152.755 16.7585 152.258 16.8438 151.68 16.8438C150.861 16.8438 150.116 16.6544 149.443 16.2756C148.776 15.892 148.243 15.3073 147.845 14.5213C147.452 13.7306 147.256 12.7315 147.256 11.5241C147.256 10.2884 147.457 9.25616 147.859 8.42756C148.262 7.59896 148.797 6.97869 149.464 6.56676C150.137 6.15483 150.873 5.94886 151.673 5.94886C152.284 5.94886 152.795 6.05303 153.207 6.26136C153.619 6.46496 153.951 6.72064 154.202 7.02841C154.457 7.33144 154.654 7.62973 154.791 7.9233H154.905V6.09091H157.909V17.1065C157.909 18.0346 157.682 18.8111 157.227 19.4361C156.773 20.0611 156.143 20.5298 155.338 20.8423C154.538 21.1596 153.617 21.3182 152.575 21.3182ZM152.639 14.571C153.127 14.571 153.539 14.4503 153.875 14.2088C154.216 13.9626 154.476 13.6122 154.656 13.1577C154.841 12.6984 154.933 12.1491 154.933 11.5099C154.933 10.8707 154.843 10.3168 154.663 9.84801C154.483 9.37453 154.223 9.00758 153.882 8.74716C153.541 8.48674 153.127 8.35653 152.639 8.35653C152.142 8.35653 151.723 8.49148 151.382 8.76136C151.041 9.02651 150.783 9.39583 150.608 9.86932C150.433 10.3428 150.345 10.8897 150.345 11.5099C150.345 12.1397 150.433 12.6842 150.608 13.1435C150.788 13.598 151.046 13.9508 151.382 14.2017C151.723 14.4479 152.142 14.571 152.639 14.571ZM169.393 9.2017L166.624 9.37216C166.576 9.13542 166.474 8.92235 166.318 8.73295C166.162 8.53883 165.956 8.38494 165.7 8.27131C165.449 8.15294 165.149 8.09375 164.798 8.09375C164.33 8.09375 163.934 8.19318 163.612 8.39205C163.29 8.58617 163.129 8.84659 163.129 9.1733C163.129 9.43371 163.233 9.65388 163.442 9.83381C163.65 10.0137 164.008 10.1581 164.514 10.267L166.489 10.6648C167.549 10.8826 168.34 11.233 168.861 11.7159C169.382 12.1989 169.642 12.8333 169.642 13.6193C169.642 14.3343 169.431 14.9616 169.01 15.5014C168.593 16.0412 168.02 16.4626 167.291 16.7656C166.567 17.0639 165.731 17.2131 164.784 17.2131C163.34 17.2131 162.189 16.9124 161.332 16.3111C160.48 15.705 159.981 14.8812 159.834 13.8395L162.81 13.6832C162.9 14.1236 163.117 14.4598 163.463 14.6918C163.809 14.919 164.251 15.0327 164.791 15.0327C165.321 15.0327 165.748 14.9309 166.07 14.7273C166.396 14.5189 166.562 14.2514 166.567 13.9247C166.562 13.6501 166.446 13.4252 166.219 13.25C165.991 13.0701 165.641 12.9328 165.168 12.8381L163.278 12.4616C162.213 12.2486 161.42 11.8793 160.899 11.3537C160.383 10.8281 160.125 10.1581 160.125 9.34375C160.125 8.64299 160.314 8.0393 160.693 7.53267C161.077 7.02604 161.614 6.63542 162.305 6.3608C163.001 6.08617 163.816 5.94886 164.749 5.94886C166.126 5.94886 167.211 6.24006 168.001 6.82244C168.797 7.40483 169.261 8.19792 169.393 9.2017Z" fill="#171717"/>
</svg>
