<svg width="18" height="18" viewBox="0 0 18 18" fill="none" xmlns="http://www.w3.org/2000/svg">
<path fill-rule="evenodd" clip-rule="evenodd" d="M3.25 2.5C3.05109 2.5 2.86032 2.57902 2.71967 2.71967C2.57902 2.86032 2.5 3.05109 2.5 3.25V13.75C2.5 13.9489 2.57902 14.1397 2.71967 14.2803C2.86032 14.421 3.05109 14.5 3.25 14.5H6.25C6.66421 14.5 7 14.8358 7 15.25C7 15.6642 6.66421 16 6.25 16H3.25C2.65326 16 2.08097 15.7629 1.65901 15.341C1.23705 14.919 1 14.3467 1 13.75V3.25C1 2.65326 1.23705 2.08097 1.65901 1.65901C2.08097 1.23705 2.65326 1 3.25 1H6.25C6.66421 1 7 1.33579 7 1.75C7 2.16421 6.66421 2.5 6.25 2.5H3.25Z" fill="#8B8B8B"/>
<path fill-rule="evenodd" clip-rule="evenodd" d="M10.9697 4.21967C11.2626 3.92678 11.7374 3.92678 12.0303 4.21967L15.7803 7.96967C16.0732 8.26256 16.0732 8.73744 15.7803 9.03033L12.0303 12.7803C11.7374 13.0732 11.2626 13.0732 10.9697 12.7803C10.6768 12.4874 10.6768 12.0126 10.9697 11.7197L14.1893 8.5L10.9697 5.28033C10.6768 4.98744 10.6768 4.51256 10.9697 4.21967Z" fill="#8B8B8B"/>
<path fill-rule="evenodd" clip-rule="evenodd" d="M5.5 8.5C5.5 8.08579 5.83579 7.75 6.25 7.75H15.25C15.6642 7.75 16 8.08579 16 8.5C16 8.91421 15.6642 9.25 15.25 9.25H6.25C5.83579 9.25 5.5 8.91421 5.5 8.5Z" fill="#8B8B8B"/>
</svg>
