<svg width="18" height="18" viewBox="0 0 18 18" fill="none" xmlns="http://www.w3.org/2000/svg">
<path d="M7.99793 1.33015C8.61778 0.971284 9.38222 0.971284 10.0021 1.33015L15.1271 4.29725C15.7447 4.65483 16.125 5.31443 16.125 6.0281V11.9719C16.125 12.6856 15.7447 13.3452 15.1271 13.7027L10.0021 16.6699C9.38222 17.0287 8.61778 17.0287 7.99793 16.6699L2.87293 13.7027C2.25529 13.3452 1.875 12.6856 1.875 11.9719V6.02811C1.875 5.31443 2.25529 4.65483 2.87293 4.29725L7.99793 1.33015ZM9 11.25C10.2427 11.25 11.25 10.2427 11.25 9C11.25 7.75732 10.2427 6.75 9 6.75C7.75732 6.75 6.75 7.75732 6.75 9C6.75 10.2427 7.75732 11.25 9 11.25Z" fill="#8B8B8B"/>
</svg>
